<svg id="Layer_1" data-name="Layer 1" xmlns="http://www.w3.org/2000/svg" xmlns:xlink="http://www.w3.org/1999/xlink" viewBox="0 0 200 200"><defs><style>.cls-1,.cls-6{fill:none;}.cls-2{clip-path:url(#clip-path);}.cls-3{fill:#192b47;}.cls-4{fill:#21b949;}.cls-5{fill:#fff;}.cls-6{stroke:#192b47;stroke-miterlimit:10;stroke-width:2px;}</style><clipPath id="clip-path"><rect class="cls-1" x="1" width="199" height="199"/></clipPath></defs><title>award</title><g class="cls-2"><path class="cls-3" d="M84.34,159.87c3.58-9.5,6.79-17.61,9.61-25.86.64-1.88.66-5-.46-6.17-1-1-4.19-.79-6-.06-3.91,1.56-7.55,3.79-10.31-2.64L66.73,153.3c3.7-2.62,6-4.21,8.2-5.82,3.65-2.62,6.17-2.49,7,2.62.49,2.85,1.35,5.63,2.37,9.77m50.41-8.11,1-.64-9.86-26.32C122,130,122,130,116.59,127.74c-1.47-.62-3.22-2-4.34-1.65-1.69.58-4.4,2.91-4.15,3.67,3.09,9.45,6.64,18.75,10.08,28.09a23.73,23.73,0,0,0,3.05-8.32c.93-4.28,3-5.35,6.72-2.58,2.22,1.67,4.54,3.21,6.81,4.81M83,122.65c7.31-5.34,12.74-3.83,17.63,3.83,4.58-9.69,11.4-8.9,18.37-5,4.13-8.08,4.13-8.08,14.91-10-3-9,2.24-13.36,10.82-15.68-5.49-7-3.82-12.38,3.16-17-8.72-4.9-8.93-11.29-3.71-19.42-10.05-.07-10.9-6.25-10-14-9.12,2.19-14.36-1.3-15.94-10.81-7.32,6-12.85,4.38-17.74-3.63-4.54,10-11.27,9.22-18.92,4.58-1.16,8.87-6.28,11.32-14.52,9.7,2.63,9.54-1.85,14.18-11,16.36,6.58,7.15,3.78,12.31-2.8,17,8.42,4.77,9.45,10.94,4.4,18,8,5,8,5,10.41,15.22,8.44-2.29,13,1.91,14.91,10.94m18.52,10.1c-4.89,12.85-9.23,24.58-13.88,36.18-.85,2.11-2.94,3.72-4.46,5.56-1.27-2.06-3-4-3.7-6.22-1.31-4.33-2-8.84-3.13-14-4.69,3.37-8.76,6.56-13.13,9.28-1.58,1-3.86.81-5.83,1.16,0-1.84-.58-3.87,0-5.49,4.57-12.56,9.36-25,14.06-37.56a22.3,22.3,0,0,0,.61-2.69,13.74,13.74,0,0,0-3.49-.52c-5.94.75-8.74-1.51-7.75-7.69.62-3.84-1.09-6-4.82-6.85C50,102.52,48.91,98.79,52,93.81c2.53-4.12,1.32-7-2.21-9.58-4.56-3.33-5.16-6.84-.2-10.32,3.7-2.6,3.84-5.63,1.53-9.2-3.11-4.81-1.47-8,3.71-9.35s6.92-4.58,6.11-9.68,1.61-7.1,6.48-6.29c4.59.76,7.1-1.22,8.13-5.56,1.24-5.22,4.4-6.47,8.82-3.72C89,33,92.4,31.88,95.42,27.68c3.15-4.38,6.51-4.11,9.55.09,2.77,3.83,5.92,4.06,9.71,1.69,4.58-2.87,7.7-1.35,8.94,3.6,1.4,5.58,4.93,7.07,10.13,6.3,5-.74,7.27,1.49,6.46,6.42s1.47,7.32,6,8.44,5.72,4.13,3.34,8.1c-2.83,4.72-2.38,8.46,2.26,11.74,4,2.84,4.24,6.13.11,9.11-3.9,2.82-4.61,5.93-2,10.06,2.9,4.54,1.15,7.41-3.71,9-3.71,1.21-6.48,2.75-6.16,7.83.51,8.23.08,8.26-9.3,8.91L139,140.55c2.27,6,4.73,11.87,6.7,17.94.64,2,0,4.35-.06,6.55-2-.56-4.16-.72-5.81-1.76-4.17-2.62-8.09-5.63-12.69-8.9-1.26,5.53-2.16,10.42-3.57,15.15-.54,1.82-2.27,3.3-3.45,4.93-1.35-1.51-3.25-2.8-4-4.57-4.09-10.18-7.88-20.48-11.81-30.73-.69-1.79-1.53-3.52-2.8-6.41"/><path class="cls-3" d="M100,103.14a24.6,24.6,0,1,0-23.82-25,24.68,24.68,0,0,0,23.82,25M69.71,78.89c0-16.77,14.24-31,31-31a31.48,31.48,0,0,1,31.15,31.47c-.16,16.51-14.22,30.54-30.74,30.68A31.35,31.35,0,0,1,69.71,78.89"/><path class="cls-4" d="M100,103.14a24.6,24.6,0,1,1,25.36-24.08A24.69,24.69,0,0,1,100,103.14"/><path class="cls-5" d="M100.31,93.55a15,15,0,1,1,15.47-14.69,15.06,15.06,0,0,1-15.47,14.69"/><path class="cls-6" d="M100.31,93.55a15,15,0,1,1,15.47-14.69A15.06,15.06,0,0,1,100.31,93.55Z"/></g></svg>