<svg id="Layer_1" data-name="Layer 1" xmlns="http://www.w3.org/2000/svg" xmlns:xlink="http://www.w3.org/1999/xlink" viewBox="0 0 200 200"><defs><style>.cls-1{fill:none;}.cls-2{fill:#21ba49;}.cls-3{clip-path:url(#clip-path);}.cls-4{fill:#172a45;}</style><clipPath id="clip-path"><rect class="cls-1" x="0.5" y="0.5" width="199" height="199"/></clipPath></defs><title>campus</title><rect class="cls-2" x="154.27" y="128" width="11.8" height="8"/><rect class="cls-2" x="30.86" y="128" width="11.8" height="8"/><rect class="cls-2" x="28" y="98.85" width="5" height="5.78"/><rect class="cls-2" x="151.58" y="98.85" width="5" height="5.78"/><rect class="cls-2" x="40.17" y="99.25" width="5" height="5.78"/><rect class="cls-2" x="163.75" y="99.25" width="5" height="5.78"/><rect class="cls-2" x="90" y="84" width="18" height="14.85"/><g class="cls-3"><path class="cls-2" d="M87,147V115a13.66,13.66,0,0,1,12-7c9,0,12,9,12,9v30Z"/><path class="cls-4" d="M130.28,158.35c3.26,0,6.51,0,9.77,0,1.82,0,1.8-.7,1.08-2a2.62,2.62,0,0,0-2.65-1.19c-5.55,0-11.1,0-16.65,0a5.36,5.36,0,0,0-1.51.31,2,2,0,0,0-1.42,2.22c.13,1.08,1.18.63,1.83.65,3.18,0,6.36,0,9.55,0m-63.61,0c3.18,0,6.37,0,9.55,0,.64,0,1.65.45,1.81-.64a2.16,2.16,0,0,0-1.15-2,4.48,4.48,0,0,0-2.57-.54q-7.77,0-15.55,0a5.41,5.41,0,0,0-2.17.35,1.9,1.9,0,0,0-1.25,2.12c.13,1.18,1.13.71,1.76.72,3.18,0,6.37,0,9.55,0m63.77-81.54c-3.26,0-6.52,0-9.77,0-.61,0-1.42-.32-1.71.57a2,2,0,0,0,.75,2.17,3.35,3.35,0,0,0,2.49.71h16a3.17,3.17,0,0,0,2.65-.88,2,2,0,0,0,.65-2c-.31-.89-1.11-.56-1.72-.57-3.11,0-6.22,0-9.33,0m-63.67,0c-3.25,0-6.51,0-9.76,0-.6,0-1.46-.32-1.63.66a1.89,1.89,0,0,0,.76,2.13,3.32,3.32,0,0,0,1.85.63c5.69,0,11.39,0,17.08,0a3.2,3.2,0,0,0,2.48-1.22A1.67,1.67,0,0,0,78,77.42c-.24-.78-.93-.6-1.49-.6-3.25,0-6.51,0-9.76,0M33.8,90c-4.6,0-9.2,0-13.8,0-1.16,0-1.79.25-1.78,1.59s.46,1.83,1.82,1.82q13.8-.07,27.6,0c1.45,0,1.69-.62,1.72-1.88S48.73,90,47.6,90c-4.6,0-9.2,0-13.8,0m129.46,0c-4.67,0-9.34,0-14,0-1.17,0-1.74.22-1.69,1.56s.12,1.88,1.65,1.86q13.79-.11,27.58,0c1.48,0,1.67-.56,1.69-1.82S178.06,90,176.82,90c-4.52.06-9,0-13.57,0M98.59,155.14c-5.64,0-11.28,0-16.92,0-.72,0-1.87-.33-1.59,1.1.18.91-.09,2.13,1.59,2.12q16.7-.07,33.4,0c1.75,0,1.62-1.3,1.74-2.29.18-1.44-1.08-.91-1.73-.92-5.49,0-11,0-16.48,0m-.11-2.26c5,0,9.95,0,14.92,0,1.48,0,2-.49,1.92-1.92s-.38-2-1.92-2q-14.81.08-29.61,0c-1.76,0-1.6,1-1.66,2.13s.18,1.85,1.67,1.82c4.9-.09,9.8,0,14.7,0M74.19,118q0-16.57,0-33.15c0-1,.46-2.32-1.46-2.27s-1.32,1.25-1.32,2.19q0,33,0,66.08c0,.92-.47,2.09,1.34,2.12,2,0,1.43-1.28,1.43-2.25q0-16.35,0-32.71m60.68-.52v6.68c0,8.91,0,17.81,0,26.72,0,1.41.18,2.28,1.91,2.06s1.09-1.38,1.09-2.2q0-19.7,0-39.4,0-13.25,0-26.49c0-1.29,0-2.41-1.82-2.24-1.58.14-1.16,1.3-1.16,2.16q0,16.36,0,32.72M62,117.9q0-16.48,0-33c0-1.15.34-2.44-1.62-2.4s-1.51,1.25-1.51,2.32q0,32.86,0,65.71c0,1.13-.34,2.39,1.65,2.35S62,151.66,62,150.65q0-16.37,0-32.74m60.41-.22h-.05q0,16.59,0,33.18c0,1.06-.15,2,1.5,2.05s1.65-.71,1.65-1.9q0-33.29,0-66.59c0-1.07-.06-1.88-1.49-1.89s-1.62.73-1.62,2c0,11.06,0,22.12,0,33.18m-53.53.06c0-10.91,0-21.82,0-32.73,0-1.67-.18-2.58-2.22-2.53-1.83.05-2.6.35-2.59,2.44q.11,32.84,0,65.68c0,1.9.59,2.36,2.39,2.33s2.46-.23,2.44-2.24c-.11-11-.05-22-.05-32.95m29,10h0c0-5.57,0-11.13,0-16.7,0-2.41-.57-2.8-2.77-2a11.54,11.54,0,0,0-7.59,10.25c-.09,8.68,0,17.37-.07,26.05,0,1.35.55,1.63,1.71,1.6,2.15-.05,4.31-.13,6.46,0,1.79.12,2.33-.52,2.3-2.26-.08-5.64,0-11.28,0-16.92m2.18,0c0,5.78,0,11.56,0,17.34,0,1.27.26,1.91,1.72,1.84,2.14-.11,4.3-.06,6.45,0,1.25,0,1.86-.28,1.85-1.73-.06-8.52.13-17-.09-25.56-.13-5-2.79-8.61-7.48-10.56-1.88-.78-2.41-.42-2.41,1.57,0,5.71,0,11.41,0,17.12m32.58-10.05c0-10.91-.05-21.82,0-32.73,0-2.1-.8-2.42-2.62-2.43s-2.57.43-2.51,2.49c.16,5.79.06,11.58.06,17.36q0,24.16,0,48.31c0,.7-.38,1.83.39,2a9,9,0,0,0,4,0c1.08-.25.65-1.52.65-2.33q0-16.36,0-32.73m-96.84,3.07c3.86,0,7.72,0,11.58,0,1.29,0,1.9-.31,1.9-1.72,0-7.28,0-14.55,0-21.83,0-1.2-.43-1.7-1.71-1.7q-11.58.07-23.17,0c-1.33,0-1.87.4-1.87,1.76q.05,10.91,0,21.83c0,1.21.4,1.68,1.69,1.66,3.86-.08,7.72,0,11.58,0m124.84,0c3.79,0,7.57-.07,11.36,0,1.59,0,2.25-.35,2.23-2.08-.08-7.05-.05-14.11,0-21.16,0-1.38-.38-2-1.89-2q-11.58.07-23.16,0c-1.3,0-1.65.46-1.65,1.67q.05,10.91,0,21.83c0,1.36.4,1.78,1.77,1.75,3.78-.09,7.57,0,11.36,0M144.79,76.86c-1,.28-1,1-1.06,1.63a3.76,3.76,0,0,1-2.26,3.33c-1.24.61-1.31,1.44-1.3,2.5q0,4.68,0,9.35,0,28.51,0,57c0,.92-.27,1.94.83,2.55,1.64.91,2.82,2.15,2.79,4.2a.69.69,0,0,0,.63.77c.67.07.64-.46.67-.89s0-.89,0-1.34q0-38.31,0-76.61a4.8,4.8,0,0,0-.31-2.5M51.47,117.42V155.7c0,.52,0,1,0,1.56s0,.92.63,1,.64-.42.7-.86a4.67,4.67,0,0,1,2.44-3.75c1.42-.7,1.5-1.72,1.49-3q0-19.81,0-39.61,0-13.24,0-26.48c0-.83.37-1.9-.74-2.34a5.08,5.08,0,0,1-3.18-4.43c0-.33,0-.83-.5-.82s-.75.42-.78.9,0,1.19,0,1.78q0,18.92,0,37.83m96.11,23c0,5.34,0,10.69,0,16,0,1.33.19,2,1.78,2q11.46-.12,22.93,0c1.57,0,2-.5,2-2q-.09-15.7,0-31.39c0-1.5-.4-2.11-2-2.1q-11.46.1-22.93,0c-1.58,0-1.8.63-1.78,2,.06,5.19,0,10.39,0,15.58m-125,.23c0,5.2.05,10.39,0,15.59,0,1.59.35,2.2,2.09,2.18,7.57-.1,15.13-.08,22.7,0,1.58,0,2-.5,2-2q-.08-15.7,0-31.4c0-1.7-.59-2.13-2.2-2.12-7.5.07-15,.08-22.49,0-1.74,0-2.12.63-2.1,2.21.07,5.19,0,10.39,0,15.59m75.7-93.46a6,6,0,0,1,2.8.71q9.79,4.36,19.61,8.64c11.87,5.18,23.77,10.31,35.61,15.56,1.57.7,2.36.64,3.06-1s1-2.56-1-3.4c-5.23-2.18-10.36-4.6-15.55-6.9q-20.9-9.25-41.8-18.51A4.46,4.46,0,0,0,97,42Q89,45.73,81,49.39,68.52,55.06,56,60.69C50.68,63.12,45.35,65.61,40,68c-2.16,1-.57,2.19-.29,3.23s.8,1.81,2.25,1.16q26-11.72,52-23.31c1.59-.71,3-1.8,4.39-1.9m.58,27.5H126.7c8.24,0,16.47,0,24.71,0,.64,0,1.64.44,1.76-.74.1-1-.72-1-1.42-1.35-3.78-1.64-7.51-3.41-11.28-5.07-13.15-5.75-26.32-11.44-39.47-17.2A4.53,4.53,0,0,0,97,50q-8.13,3.71-16.29,7.38Q66.53,63.78,52.3,70.09c-2.21,1-4.4,2-6.61,3-.54.25-1.38.46-1.27,1.05.16.89,1.09.42,1.69.49a15.53,15.53,0,0,0,1.78,0h51m-22.2,42.78V150c0,.52,0,1,0,1.56-.09,1.1.43,1.4,1.45,1.36s1.82,0,1.76-1.34c0-.67.07-1.34,0-2-.22-2,.56-2.82,2.65-2.73,2.81.12,2.82,0,2.82-2.92,0-8.17-.08-16.33,0-24.5a13.41,13.41,0,1,1,26.82.33c.06,8.39,0,16.78,0,25.17,0,1.36.29,2,1.83,2,3.43,0,3.43.11,3.46,3.63,0,.37,0,.74,0,1.11-.06,1,.43,1.23,1.35,1.25,2,.06,1.36-1.41,1.36-2.34q0-32.85,0-65.7c0-1.34.22-2.54-1.55-3.21a3.27,3.27,0,0,1-1.89-2.82c-.1-1.47-.83-2.07-2.47-2.05-10.62.09-21.23.06-31.85,0-1.29,0-2.12.19-2.26,1.69a3.8,3.8,0,0,1-2.09,3.21c-1.48.62-1.4,1.63-1.4,2.8q0,16.48,0,33m21.75,43.29h-59c-5.49,0-11,0-16.48.13-2,.06-2.55-.69-2.54-2.55,0-10.91,0-21.83,0-32.74,0-1.6.1-3.05-2.23-2.75a1.16,1.16,0,0,1-1.4-1.11c0-.91.78-1.06,1.44-1,1.93.26,2.2-.79,2.19-2.37q-.06-10.36,0-20.71c0-1.6-.47-2.4-2.17-2.16S16,95,16,93.38c.09-6.71-.68-5.73,5.6-5.75,8.32,0,16.63-.09,24.94.05,2.32,0,3-.68,2.79-2.89a44.46,44.46,0,0,1,0-6c.07-1.58-.58-2.14-2.11-2a20,20,0,0,1-3.12,0c-.86-.05-2,.4-2.15-1.16,0-.54-.53-.48-.85-.36-1.9.68-2.47-.63-3-2a28,28,0,0,0-1.58-3.65c-1.05-1.76-.24-2.46,1.3-3.15,5.17-2.31,10.3-4.74,15.45-7.08,9.31-4.23,18.64-8.41,28-12.64,5.29-2.4,10.56-4.85,15.85-7.27a3.85,3.85,0,0,1,3.25,0c8.27,3.68,16.51,7.41,24.79,11.09,10.69,4.75,21.45,9.34,32.08,14.23,7.39,3.4,6.58,1.25,3.51,8.87-.68,1.7-1.79,2.31-3.46,1.32-1-.62-1.59-.58-1.64.81,0,1.05-1,1-1.67,1-1.63,0-3.27.07-4.9,0-1.08,0-1.45.39-1.43,1.42,0,2.45.12,4.91,0,7.35-.11,1.74.55,2.1,2.15,2.09,9.35-.06,18.71,0,28.06,0,2.78,0,3,.26,3.06,3,0,.82-.06,1.64,0,2.45.16,1.83-.61,2.67-2.44,2.4-1.62-.24-2,.53-2,2,.05,7.05,0,14.1,0,21.16,0,1.23.06,2.27,1.75,2.05a.87.87,0,0,1,1.05.88c0,.72-.36,1.24-1,1.18-2.08-.19-1.78,1.23-1.78,2.47q0,16.26,0,32.52c0,3,0,3-3.13,3H98.42Z"/><path class="cls-4" d="M98.05,100.68c-.17-1.32-1-1.22-1.7-1.23-1.7,0-3.41-.09-5.1,0S89,98.82,89,97.26c0-2.88,0-5.77,0-8.65,0-.57.11-1.25-.83-1.22s-.67.63-.67,1.11c0,3.62,0,7.25,0,10.87,0,.93.36,1.33,1.31,1.32,3,0,6.06,0,9.22,0m8.09-9.57V89.32c0-4.31,0-4.24-4.35-4.12-1.52,0-1.91.67-1.86,2,.07,1.93,0,3.86,0,5.79.09,4.92-.83,4.23,4.4,4.32,1.32,0,1.9-.39,1.82-1.78s0-3,0-4.45m-14.67.06v2c0,4.35,0,4.29,4.44,4.19,1.4,0,1.8-.55,1.76-1.84-.06-2.07,0-4.15,0-6.22-.07-4.67.66-4-4.17-4.1-1.5,0-2.19.34-2,2,.13,1.32,0,2.66,0,4m7.29,11.65c-3.64,0-7.27-.07-10.91,0-1.79,0-2.57-.51-2.53-2.4.09-4.38.07-8.76,0-13.13,0-1.7.63-2.5,2.36-2.4.36,0,1,0,1-.16C89.81,82,92.2,83,94.09,83c3.83-.13,7.68,0,11.51,0,1.18,0,2.36-.15,2.94,1.35.38,1,1.45.44,2.21.56a1.63,1.63,0,0,1,1.45,1.19c.26.89-.39,1.31-1,1.81s-.79.5-1.47-.14c-1-.9-1.32,0-1.31,1,0,2.75-.09,5.49,0,8.24.08,1.89-.47,2.75-2.51,2.53a47.93,47.93,0,0,0-5.12-.06c-.51,0-1.15,0-1.21.67-.08.93.72.55,1.11.55,2.52,0,5-.07,7.57,0,1.29,0,1.72-.56,1.7-1.74,0-1.56,0-3.12,0-4.67,0-.72.1-1.35,1-1.38s1.24.58,1.23,1.43c0,2.15,0,4.3,0,6.46,0,1.5-.69,2.11-2.19,2.1-3.78,0-7.57,0-11.35,0Z"/><path class="cls-4" d="M98.56,52.5c2.16,0,3.59,1,5.13,1.67,9.76,4,19.46,8,29.18,12.09a5.37,5.37,0,0,1,1.19.58c.51.38,1.26.75.83,1.57a1.17,1.17,0,0,1-1.7.48c-2.84-1.21-5.72-2.34-8.57-3.53q-11.92-5-23.83-10a4.3,4.3,0,0,0-3.58,0L71.53,66.6c-2.36,1-4.67,2.16-7.06,3.12-.79.32-2,1-2.47-.29s.84-1.61,1.62-1.95Q80.29,60.19,97,53a14.08,14.08,0,0,1,1.54-.51"/><path class="cls-4" d="M99.85,64.9c-.41,1,.58,2.85-1.22,2.82-1.43,0-1.09-1.71-1-2.72s-.79-3,1-3.06.66,2,1.19,3"/><path class="cls-4" d="M36.79,128.78c-4.63,0-4.63,0-4.64,2.89,0,3.08,0,3.08,3.19,3.08h2.89c3.06,0,3.07,0,3.06-3,0-3.52.22-2.93-2.95-3-.52,0-1,0-1.56,0m4.5,15.47c0-1.93,0-3.85,0-5.78,0-1.08-.36-1.63-1.55-1.59-2,.07-4,.08-6,0-1.19,0-1.59.48-1.58,1.56,0,2.08-.09,4.15,0,6.22.11,2.26-1,5.22.53,6.6s4.4.29,6.69.4h.22c1.22.14,1.74-.36,1.69-1.63-.07-1.92,0-3.85,0-5.78m2.15-4.08c0,3.94,0,7.87,0,11.81,0,1.66-.62,2.23-2.24,2.19-3.11-.09-6.23-.05-9.35,0-1.3,0-1.91-.52-1.9-1.85,0-8,0-16,0-24.06,0-1.26.59-1.82,1.7-1.83,3.34,0,6.68,0,10,0,1.28,0,1.79.67,1.77,2-.06,3.93,0,7.87,0,11.81"/><path class="cls-4" d="M159.89,134.76c5,0,5,0,4.73-4.4-.06-1.08-.32-1.63-1.53-1.59-2.06.07-4.13.05-6.2,0-.95,0-1.23.33-1.31,1.27-.38,4.71-.42,4.71,4.31,4.71m-4.28,9.53h.17c0,2.35-.9,5.4.24,6.87s4.42.33,6.75.51H163c1.1.1,1.63-.32,1.62-1.5,0-3.92,0-7.84,0-11.76,0-1.09-.43-1.58-1.6-1.53-2,.08-4,.07-6,0-1.08,0-1.43.38-1.41,1.41,0,2,0,4,0,6m-2.48-3.89c0-3.85,0-7.71,0-11.56,0-1.69.69-2.46,2.37-2.45,3,0,6.08,0,9.11,0,1.58,0,2.31.65,2.31,2.25q0,11.67,0,23.34c0,1.57-.68,2.25-2.31,2.21-3-.08-6.08-.07-9.11,0-1.75,0-2.37-.81-2.35-2.44,0-3.78,0-7.56,0-11.34"/><path class="cls-4" d="M152.43,101.85c-.21,1.37.27,2,1.77,2,1.77,0,1.57-1,1.61-2.15s-.15-1.93-1.64-1.92-1.94.71-1.75,2.05m3.37,9.43c0-1.25-.07-2.51,0-3.76s-.5-1.48-1.58-1.44-1.89,0-1.85,1.45c.07,2.43,0,4.87,0,7.3,0,1.25.34,1.85,1.76,1.88s1.71-.7,1.66-1.89,0-2.36,0-3.54m2.48-3.18c0,2.89,0,5.78,0,8.66,0,1.4-.57,2.06-2,2-7.47-.1-5.93,1-6.05-5.6-.08-4.44.07-8.89,0-13.33,0-1.81.69-2.34,2.33-2.34,6.89,0,5.63-.2,5.72,5.46,0,1.7,0,3.41,0,5.11"/><path class="cls-4" d="M167.67,101.87c.19-1.28,0-2.08-1.65-2.08s-1.67.93-1.68,2.12.15,1.93,1.63,2,1.93-.66,1.69-2m0,9.38c0-1.26-.07-2.53,0-3.78s-.6-1.42-1.63-1.4-1.77,0-1.74,1.33c.06,2.59,0,5.19,0,7.79,0,1.38.81,1.46,1.9,1.5,1.27,0,1.48-.61,1.45-1.65,0-1.26,0-2.52,0-3.78m-5.47-3c0-2.67,0-5.34,0-8,0-.52-.16-1.17.09-1.53,1.48-2.21,3.76-.81,5.67-1.1,1.21-.18,2,.52,2,1.83q0,8.79,0,17.58a1,1,0,0,1,0,.44c-1.46,2.7-4,.86-5.94,1.32-1.35.31-1.78-.59-1.77-1.85,0-2.89,0-5.79,0-8.68"/><path class="cls-4" d="M32.59,101.82c.27-1.42-.26-2-1.77-2s-1.74.69-1.74,1.93.13,2.14,1.76,2.12,2-.66,1.75-2m0,9.45c0-1.18-.06-2.37,0-3.55S32.25,106,31,106.06s-2,.17-1.92,1.65c.08,2.37,0,4.74,0,7.11,0,1.24.35,1.89,1.78,1.88s1.83-.59,1.76-1.87,0-2.37,0-3.55m2.14-3.17c0,2.89,0,5.78,0,8.66,0,1.36-.45,2.08-1.92,2-6.89-.15-6,1-6-5.72,0-4.29.07-8.59,0-12.89,0-2.06.78-2.72,2.76-2.69,6.1.08,5.15-.36,5.22,5.25,0,1.78,0,3.56,0,5.33"/><path class="cls-4" d="M44.28,101.85c.08-1.15-.05-2-1.58-2s-1.8.59-1.76,1.88.09,2.17,1.74,2.16,1.69-.85,1.6-2m0,9.43c0-1.26,0-2.51,0-3.76s-.58-1.46-1.65-1.44-1.73.13-1.71,1.39c0,2.51,0,5,0,7.53,0,1.17.52,1.69,1.77,1.69s1.54-.61,1.55-1.64c0-1.25,0-2.51,0-3.77m2.29-3.09c0,2.75,0,5.49,0,8.24,0,1.65-.48,2.44-2.29,2.39-6.19-.15-5.5.83-5.53-5.38,0-4.38.07-8.76,0-13.14,0-2,.55-2.83,2.64-2.79,5.82.1,5.17-.4,5.2,5.11,0,1.86,0,3.71,0,5.57Z"/><path class="cls-2" d="M96,108.72s5.28-1.08,7.28.92S103,147,103,147H95Z"/></g></svg>