<svg id="Layer_1" data-name="Layer 1" xmlns="http://www.w3.org/2000/svg" viewBox="0 0 200 200"><defs><style>.cls-1{fill:none;}.cls-2{fill:#192b47;}.cls-3{fill:#21b949;}.cls-4{fill:#fff;}</style></defs><title>Untitled-1</title><rect class="cls-1" x="0.69" y="0.61" width="199" height="199"/><path class="cls-2" d="M78.48,108.12C65.83,114.62,60.81,125.8,59.91,139c-.13,1.95,4.43,6,6.87,6q34.07.7,68.15,0c2.24,0,6.37-3.84,6.27-5.74-.56-11.26-4.27-21.47-14-28.21-1.8-1.21-5.68-1.64-7.35-.54-14.42,9.5-28,8-41.37-2.42m21.91,43.07c-11.79,0-23.59-.12-35.38,0-8.08.11-11.57-3.84-11.35-11.64.44-15.78,6.55-28.53,20.64-36.34,2.42-1.32,7.25-.86,9.5.8,11.74,8.73,22.25,8.8,33.85.07a10.28,10.28,0,0,1,8.74-1.14c13.5,6.19,23,24.82,21,39.51-.88,6.36-4.74,8.72-10.74,8.71H100.37"/><path class="cls-2" d="M119.57,77.58c0-13.3-6.63-20.2-19.34-20-12.44.21-18.64,6.76-18.68,19.73,0,13.78,7.71,23.32,18.93,23.3,11.59,0,19.07-9,19.07-23M100.72,51.83c16.71,0,25.17,8.86,25,26-.15,17.41-10.24,29-25.29,29C86,106.89,75.41,94.58,75.36,77.5s8.46-25.73,25.39-25.67"/><path class="cls-2" d="M177.41,102.26c10.72,1,16.66,9.38,16.56,23.66H149.41l-.47-2.42c2.62-.66,5.24-1.83,7.88-1.9,8-.23,16.1.12,24.18-.15,2.32-.07,4.58-1.49,6.88-2.27-1-2.58-1.34-5.69-3.07-7.56s-5.48-3.72-7-3c-7.25,3.63-13.89,3.22-21.46.46-2.8-1-7.4,2.85-13,5.26,1.14-2.74,1.52-6,3.34-7.58,3.3-3,6.65-8.15,12.26-3.25l18.46-1.31"/><path class="cls-2" d="M44.72,101.7c10,2.61,13.44,6.72,10.88,14.11-4.16-7.83-9.41-8.56-16.93-4.94-3.43,1.63-8.92-.22-13.21-1.44-5.63-1.62-12.32,1.87-12,7.58.08,1.58,3.52,4.13,5.55,4.27,8.31.53,16.66.18,25,.4a55.69,55.69,0,0,1,8.2,1.41l-.28,2.65H7.45c-1.21-12.72,4.84-21.48,16.68-24.4,6.76,6,13.63,5,20.55.36"/><path class="cls-2" d="M177.17,85.73c.15-5.13-2.31-9.3-9.89-9.35-7.39,0-10.31,3.87-10.47,10.64-.18,7.76,3.52,12.27,10,12.37S177.07,95,177.17,85.73m.24,16.53L159,103.57c-1.79-2.87-4-5.56-5.28-8.64-3.17-7.51-1.35-16.93,3.92-20.34,6.34-4,13.3-4.44,19.22.24,6.92,5.42,5.8,13,3.63,20.38a71.06,71.06,0,0,1-3,7"/><path class="cls-2" d="M31.52,99.38C42,99.14,44.06,93.81,44.2,87.18S41.53,76.3,34.08,76.3,23.87,80.38,23.87,87.15c0,7.63,3.81,12.25,7.6,12.25m13.2,2.31c-6.94,4.67-13.82,5.61-20.55-.36a36.27,36.27,0,0,1-3.3-6c-2.31-7.08-3.42-14.51,2.88-20,5.82-5.1,12.94-5,19.34-1,7.42,4.69,6.21,12.34,4.91,19.49-.5,2.74-2.13,5.3-3.24,7.93"/><path class="cls-3" d="M78.48,108.12c13.3,10.48,26.95,11.93,41.37,2.42,1.67-1.1,5.55-.69,7.35.54,9.74,6.73,13.46,16.93,14,28.21.1,1.89-4,5.69-6.27,5.73q-34.07.65-68.17,0c-2.42,0-7-4.11-6.87-6,.91-13.19,5.92-24.37,18.57-30.87"/><path class="cls-3" d="M119.57,77.58c0,14-7.47,23-19.07,23-11.22,0-19-9.52-18.95-23.3,0-13,6.24-19.53,18.68-19.73,12.71-.22,19.34,6.64,19.34,20"/><path class="cls-4" d="M177.17,85.73c-.1,9.29-3.94,13.76-10.37,13.66s-10.17-4.62-10-12.38c.16-6.77,3.08-10.68,10.47-10.63,7.58,0,10,4.23,9.89,9.35"/><path class="cls-4" d="M31.52,99.38c-3.8,0-7.65-4.61-7.65-12.24,0-6.81,2.77-10.77,10.17-10.77s10.26,4.1,10.12,10.88S42,99.14,31.52,99.38"/></svg>