<svg id="Layer_1" data-name="Layer 1" xmlns="http://www.w3.org/2000/svg" viewBox="0 0 200 200"><defs><style>.cls-1{fill:#00bb56;}.cls-2{fill:#192b47;}.cls-3{fill:none;}</style></defs><title>earth</title><path class="cls-1" d="M165.66,100.59a75.73,75.73,0,0,0-.5-8.79,67.85,67.85,0,0,0-1.48-8,62.56,62.56,0,0,0-4.12-11.53,65.94,65.94,0,0,0-12.07-17.67A65.93,65.93,0,0,0,116.1,36.3a61.12,61.12,0,0,0-14.4-1.92,71.51,71.51,0,0,0-9.75.49A62.14,62.14,0,0,0,72.1,40.53a66.73,66.73,0,0,0-14.9,9.65,66.06,66.06,0,0,0-19,27.49c-.28.78-.58,1.56-.83,2.35s-.46,1.59-.67,2.4-.4,1.55-.59,2.32a11.31,11.31,0,0,0-.51,2.42,17.13,17.13,0,0,1-.43,2.07c-.17,1.43-.49,2.85-.58,4.28a68.51,68.51,0,0,0,.22,14.27c.33,2.25.68,4.48,1.13,6.71A56.76,56.76,0,0,0,39.1,124.7a66.43,66.43,0,0,0,10.3,17.18A65.7,65.7,0,0,0,67.28,157,64.36,64.36,0,0,0,84.7,163.9a62.12,62.12,0,0,0,13.4,1.75,68.43,68.43,0,0,0,10.22-.49,65.38,65.38,0,0,0,8-1.47,65.39,65.39,0,0,0,24.95-12.52,64.64,64.64,0,0,0,8.31-8,66.1,66.1,0,0,0,7-9.7,68.67,68.67,0,0,0,5.85-12.92,70.3,70.3,0,0,0,3-13.84,32.59,32.59,0,0,0,.28-6.13m3.18-.59c.31,37.91-31,68.42-67.75,68.89-39.08.5-69.51-31.26-70-67.83-.49-39.08,31.33-69.6,68.15-70,38.27-.37,69.88,31,69.57,68.89"/><path class="cls-2" d="M22.51,99.28a26.11,26.11,0,0,1,0-3.71c.29-2.28.34-4.58.75-6.86.3-1.66.52-3.34.88-5a55.72,55.72,0,0,1,2.61-9.11,1.56,1.56,0,0,1,1.51-1,1.66,1.66,0,0,1,1.47,1.1,1,1,0,0,1,.06.81,78.59,78.59,0,0,0-2.35,8.14c-.36,1.49-.59,3-.84,4.53a73.23,73.23,0,0,0-.91,15.07,76,76,0,0,0,1,9,74,74,0,0,0,14.78,33.67,69,69,0,0,0,8,8.76,76,76,0,0,0,15.21,10.85,1.63,1.63,0,0,1,.88,2.35c-.42.84-1.31,1-2.39.45a78.17,78.17,0,0,1-25-21.38,75.9,75.9,0,0,1-8.65-14.46,77,77,0,0,1-4.22-11.49,75.39,75.39,0,0,1-2-9.46,71.87,71.87,0,0,1-.83-12.2"/><path class="cls-2" d="M100.22,22.54a47.63,47.63,0,0,1,10.32.61,78.75,78.75,0,0,1,14.65,3.51,77.2,77.2,0,0,1,20.23,10.5,63.91,63.91,0,0,1,6.92,5.67c.9.86,1,1.54.31,2.31a1.53,1.53,0,0,1-2.36,0c-2-1.59-3.81-3.3-5.85-4.79a75.32,75.32,0,0,0-13.89-8.15,70,70,0,0,0-7.9-3.05c-2.61-.8-5.25-1.47-7.93-2a70.65,70.65,0,0,0-9.93-1.33A47.16,47.16,0,0,0,94.18,26c-1,.16-2,.11-2.94.21a71.8,71.8,0,0,0-13.67,2.9,66.6,66.6,0,0,0-10.08,4.07A1.62,1.62,0,1,1,66,30.32a87.64,87.64,0,0,1,8.24-3.47,91.16,91.16,0,0,1,8.92-2.58c1.37-.34,2.77-.56,4.16-.77a66.35,66.35,0,0,1,12.92-1"/><path class="cls-2" d="M177.51,102.83a66.34,66.34,0,0,1-1.21,11.24A74.7,74.7,0,0,1,172,128.82,76.19,76.19,0,0,1,161.6,147.1a61.43,61.43,0,0,1-4.25,5.1,1.71,1.71,0,0,1-1.49.56,1.43,1.43,0,0,1-1.18-2.21,25.06,25.06,0,0,1,2.65-3.19,75.18,75.18,0,0,0,9.27-14.27,72.88,72.88,0,0,0,4.84-12.33,67.39,67.39,0,0,0,2-9,73.26,73.26,0,0,0,.93-11.46A1.77,1.77,0,0,1,176,98.42c.92,0,1.54.78,1.55,1.92,0,.83,0,1.66,0,2.49"/><path class="cls-2" d="M100,177.46c-3.68.32-7.13-.23-10.58-.55-1.67-.16-3.32-.57-5-.9a1.85,1.85,0,0,1-1.41-1.63,1.64,1.64,0,0,1,1.8-1.49,30.71,30.71,0,0,1,4.27.68,23.33,23.33,0,0,0,2.56.32,65.7,65.7,0,0,0,13,.37,63,63,0,0,0,8.77-1.07,80.49,80.49,0,0,0,14-4.07c2.89-1.16,5.67-2.53,8.43-3.95a1.57,1.57,0,0,1,2.25.54,1.61,1.61,0,0,1-.74,2.18,58.27,58.27,0,0,1-7.28,3.54c-2.24.92-4.49,1.82-6.81,2.53q-4.09,1.25-8.29,2.12a94.89,94.89,0,0,1-9.75,1.33,50.92,50.92,0,0,1-5.26,0"/><path class="cls-2" d="M58.43,37.57a1.49,1.49,0,0,1-.77,1.33A87.77,87.77,0,0,0,48.84,46a1.36,1.36,0,0,1-2.11,0,1.42,1.42,0,0,1,0-2.21A48.62,48.62,0,0,1,52.13,39c1.27-1,2.63-1.93,3.95-2.88a1.39,1.39,0,0,1,1.64,0,1.46,1.46,0,0,1,.71,1.46"/><path class="cls-1" d="M156,92.33c0-1.14,0-2.29,0-3.45a13.58,13.58,0,0,1,.62-5.1,4.9,4.9,0,0,1,1.68-2.26,1.77,1.77,0,0,1,2.48.23c.56.7.39,1.59-.48,2.31A3.6,3.6,0,0,0,159.21,87a21.92,21.92,0,0,0-.05,4,7.61,7.61,0,0,1-.42,3.73c-.64,1.74-2.31,2.66-4.17,1a24.88,24.88,0,0,1-4-5,10.78,10.78,0,0,0-3.3-3.68,7.34,7.34,0,0,0-3.48-1.1,15.52,15.52,0,0,0-4.58.25c.71.14,1.43.17,2.14.35,3,.8,4.28,3.58,2.69,6.71a19.65,19.65,0,0,1-4.38,5.55,5.24,5.24,0,0,1-6.57.28,39.45,39.45,0,0,1-4.76-4.36l-.85-.8a12.12,12.12,0,0,0,1.38,3.57,56.36,56.36,0,0,0,4.43,7.76,2.13,2.13,0,0,0,1.92,1c1,0,1.9-.18,2.85-.22,2.39-.09,3.51,1.54,2.61,3.76A28.67,28.67,0,0,1,137,116a82.13,82.13,0,0,0-5.68,7.83,9.2,9.2,0,0,0-1,3.6c-.34,2.8-.2,5.65-.87,8.42a10.12,10.12,0,0,1-1.86,3.14,47.42,47.42,0,0,1-8.14,9.5,15.67,15.67,0,0,1-4.67,3.25,6.06,6.06,0,0,1-6.87-1.44,22.87,22.87,0,0,1-3.91-5.9,11.88,11.88,0,0,1-1.6-3.5c-.42-2.29.22-4.46.74-6.63a3.34,3.34,0,0,0-.18-2.57,45.24,45.24,0,0,1-2.58-5.1,8.44,8.44,0,0,1-.56-4.39,5.21,5.21,0,0,0-1.54-4.72A2.78,2.78,0,0,0,95.8,117a19.26,19.26,0,0,1-7.89,0,37.88,37.88,0,0,1-8.57-3.36c-1.39-.72-2.74-1.53-4.13-2.25-1.92-1-2.58-2.72-3-4.7a20.79,20.79,0,0,1,.25-7.78,25.4,25.4,0,0,1,4.77-11.75,12.86,12.86,0,0,1,4.84-3.61,26.27,26.27,0,0,1,8.74-2.45c1.07-.11,2.12-.27,3.2-.31a16,16,0,0,1,9.31,2.36c2,1.26,4.2,2.36,6.69,1.83a22,22,0,0,1,4.4-.3,5.84,5.84,0,0,1,1.64.22,5.26,5.26,0,0,0,3.59-.45,1.34,1.34,0,0,0,.71-1.7c-.65-2.73-2.77-3.51-5.13-3.93a77.1,77.1,0,0,0-13-.87,58.33,58.33,0,0,0-8.35.72,34,34,0,0,1-8,.28,2.74,2.74,0,0,1-2.46-1.84,3.53,3.53,0,0,1,.91-3.59,33.1,33.1,0,0,1,6.31-5.08,44.9,44.9,0,0,1,6.88-3.94,2.43,2.43,0,0,0,1.27-2.29,15.25,15.25,0,0,0,0-2.59c-.2-2.27,1-3.59,2.91-4.45a25,25,0,0,1,6.84-1.79,31.05,31.05,0,0,1,5.6-.33.8.8,0,0,0,.9-.83,6.62,6.62,0,0,0-.2-3.47c-.86-2-.35-3.8.43-5.61a9.18,9.18,0,0,1,1.36-2.29c.69-.82,1.44-1,2.17-.41a1.67,1.67,0,0,1,.35,2.3,11.23,11.23,0,0,0-1.27,2.45,4.34,4.34,0,0,0,0,2.71,9,9,0,0,1-.21,6.31,3.13,3.13,0,0,1-3.21,2,31.56,31.56,0,0,0-9.49,1.1,17.1,17.1,0,0,0-1.9.69A1.71,1.71,0,0,0,102,59.88a16.19,16.19,0,0,1-.2,3.85,5.43,5.43,0,0,1-3.27,3.86,50.41,50.41,0,0,0-10.87,7.07c-.31.25-.87.52-.7,1s.72.16,1.11.17a77.4,77.4,0,0,0,8.26-.65c3.64-.26,7.28-.79,11-.22,1.91.29,3.88,0,5.81.31,2.52.37,5.07.67,7.27,2.12a7.37,7.37,0,0,1,3.24,5.56,4.61,4.61,0,0,1-3.36,4.75,9.59,9.59,0,0,1-5.08.29,9.26,9.26,0,0,0-4.21.1,9.17,9.17,0,0,1-6-.54,55.08,55.08,0,0,1-5.09-2.6,9.16,9.16,0,0,0-4-.94,29,29,0,0,0-10.78,1.64c-3.94,1.32-6.34,4.13-7.88,7.88A34,34,0,0,0,75.13,103a13.71,13.71,0,0,0,.58,4.46A2.18,2.18,0,0,0,77,108.77a78.23,78.23,0,0,0,9.16,4.31,16.48,16.48,0,0,0,9.35.59,5.51,5.51,0,0,1,4.36,1,7.34,7.34,0,0,1,3,4.92,10.38,10.38,0,0,1,.07,3.81c-.22,1.35.66,2.58,1.25,3.78s1.3,2.51,2,3.74a4.62,4.62,0,0,1,.19,3.67,15.55,15.55,0,0,0-.78,5.44,2.43,2.43,0,0,0,.23,1.07c1,1.78,2.06,3.57,3.09,5.34a5.67,5.67,0,0,0,.55.74c1.64,2,3.15,2.58,5.88.52a45.9,45.9,0,0,0,9.45-10.28,9.52,9.52,0,0,0,1.94-5.2c.1-1.59.3-3.2.35-4.77a12.44,12.44,0,0,1,2.59-7.06c1.94-2.69,4-5.33,6-8a23.93,23.93,0,0,0,1.41-2.27c.33-.55.11-.72-.45-.69-.31,0-.62,0-.92,0-2.3.28-3.86-.81-5.09-2.64a60.43,60.43,0,0,1-5.94-11.13,11.35,11.35,0,0,1-.89-3.57,2.43,2.43,0,0,1,1-2.35,2.25,2.25,0,0,1,2.45,0,22.63,22.63,0,0,1,5,4.07,19.43,19.43,0,0,0,2.62,2.46,2.29,2.29,0,0,0,3.26-.23,16.13,16.13,0,0,0,3.25-4.44c.58-1.27.53-1.9-1.37-2.15a17.36,17.36,0,0,1-3.35-.58c-1-.34-1.92-.79-2.15-1.92a2.64,2.64,0,0,1,1.48-3A8.34,8.34,0,0,1,139,82.92a20,20,0,0,1,6.16,0,11.2,11.2,0,0,1,8,5.86c.68,1.16,1.56,2.21,2.35,3.31.1.14.18.34.52.27"/><path class="cls-1" d="M81.19,55.11a3.86,3.86,0,0,1-3.05-1A2.89,2.89,0,0,1,77.76,50c3.12-3.23,6.53-6.08,11.06-7.18a12.64,12.64,0,0,1,1.89-.4c1.07-.09,1.36-.8,1.5-1.67.05-.3,0-.62.11-.92A1.65,1.65,0,0,1,94,38.44a1.68,1.68,0,0,1,1.47,1.73c-.14,2.54-1.28,5-4.38,5.39-3.68.44-6.57,2.43-9.26,4.8-.34.3-.7.59-1.06.88-.15.12-.3.26-.24.46s.29.2.47.22a4.49,4.49,0,0,0,2-.34,44.81,44.81,0,0,0,9-4.46,10.29,10.29,0,0,1,3.26-1.24A64.93,64.93,0,0,1,103,44.5a10.89,10.89,0,0,0,5.89-2.35,26.25,26.25,0,0,1,2.41-1.7,1.59,1.59,0,0,1,2.23.24,1.43,1.43,0,0,1-.27,2.19c-2.69,1.81-5,4.27-8.58,4.53a56.93,56.93,0,0,0-6.44,1.06,19.43,19.43,0,0,0-7,2.79,43,43,0,0,1-7.77,3.59,5.62,5.62,0,0,1-2.28.26"/><path class="cls-1" d="M52.82,133.48a22.23,22.23,0,0,1,1.64-8.7c1.18-2.9.45-5.34-1.57-7.54a18.16,18.16,0,0,0-5.06-3.82c-2.49-1.28-3.38-3.47-3.91-6a51.3,51.3,0,0,1-.58-8.54,30,30,0,0,0-.51-4.29A3.32,3.32,0,0,0,41,92.05a1.25,1.25,0,0,1-.78-1.58c.44-2.37.61-2.24,2.43-1.15,2.25,1.35,3.24,3.52,3.59,6.12.43,3.25.12,6.53.54,9.76a12.68,12.68,0,0,0,1,4,3.32,3.32,0,0,0,1.47,1.34,22.69,22.69,0,0,1,7.13,6,9,9,0,0,1,1.06,9.17,21.44,21.44,0,0,0-1.24,10.39,5.34,5.34,0,0,0,.24.79,1.63,1.63,0,1,1-3.12.78,16.23,16.23,0,0,1-.4-2.26,18.25,18.25,0,0,1-.13-2"/><path class="cls-1" d="M71.73,54.21c.11,5.1-2.64,8.26-7,10.22a37.58,37.58,0,0,1-7.07,2.37,6.64,6.64,0,0,0-3,1.74,56.4,56.4,0,0,0-6.12,6.53,8.76,8.76,0,0,1-.78.9,1.39,1.39,0,0,1-2.12.11,1.5,1.5,0,0,1-.23-2.15c1-1.33,2.1-2.65,3.23-3.91a30.47,30.47,0,0,1,5.88-5.3c1.55-1,3.41-1.2,5.12-1.79a29.4,29.4,0,0,0,5.28-2.16,7.16,7.16,0,0,0,3.63-7.57A15.22,15.22,0,0,0,68,51,1.62,1.62,0,0,1,69,48.69c.8-.26,1.64.28,2,1.35a10.7,10.7,0,0,1,.69,4.17"/><path class="cls-1" d="M137,130.85a20.51,20.51,0,0,0-3.38,7.44c0,.2-.13.47.08.6s.45-.08.62-.25a2.47,2.47,0,0,0,.41-.5,23.12,23.12,0,0,0,2.27-7.29m3.39-.68a25.5,25.5,0,0,1-2.92,9.54,5.44,5.44,0,0,1-3.84,2.76c-1.15.23-2.76-.94-3.17-2.2a4.54,4.54,0,0,1,0-2.69,24.55,24.55,0,0,1,5.1-10.1,2.53,2.53,0,0,1,3.59-.61,4.12,4.12,0,0,1,1.26,3.3"/><path class="cls-1" d="M90.08,155.11c3.6.41,7.23.4,10.84.64a17.91,17.91,0,0,1,6.53,1.42,7.36,7.36,0,0,1,2.37,1.72,1.47,1.47,0,0,1-.07,2.28,1.4,1.4,0,0,1-2.13-.07,6.57,6.57,0,0,0-3.63-1.65,35.31,35.31,0,0,0-5.85-.62c-1.81,0-3.63-.13-5.44-.2-.59,0-1.11-.33-1.71-.34a19.08,19.08,0,0,0-7.18,1.37l-.35.13a1.64,1.64,0,0,1-2.17-.83,1.56,1.56,0,0,1,.93-2.12,18.29,18.29,0,0,1,4.39-1.35,9.75,9.75,0,0,1,3.47-.4"/><rect class="cls-3" x="0.49" y="0.5" width="199" height="199"/></svg>