<svg id="Layer_1" data-name="Layer 1" xmlns="http://www.w3.org/2000/svg" xmlns:xlink="http://www.w3.org/1999/xlink" viewBox="0 0 100 100"><defs><style>.cls-1{fill:none;}.cls-2{clip-path:url(#clip-path);}.cls-3{fill:#192b47;}.cls-4{fill:#21ba4a;}</style><clipPath id="clip-path"><rect class="cls-1" x="0.25" y="0.25" width="99.5" height="99.5"/></clipPath></defs><title>enhanced_profile</title><g class="cls-2"><path class="cls-3" d="M24.51,50q0,15.63,0,31.26c0,1.81.37,2.19,2.1,2.19H74.2a1.22,1.22,0,0,0,1.15-.9,3.39,3.39,0,0,0,.14-1.2q0-31.34,0-62.68c0-1.76-.38-2.16-2.06-2.16H25.91a1.29,1.29,0,0,0-1.31,1.09,4.43,4.43,0,0,0-.08,1.21q0,15.59,0,31.19m-2.85,0q0-16,0-32a4.67,4.67,0,0,1,2.13-4.17,4,4,0,0,1,2.31-.6H73.84A4.36,4.36,0,0,1,78.34,18q0,32,0,64.06a4.36,4.36,0,0,1-4.51,4.69H26.17A4.36,4.36,0,0,1,21.66,82q0-16,0-32"/><path class="cls-3" d="M27.53,46.43a11.07,11.07,0,0,1,8.23-10.87c.63-.15.85,0,.94.67.4,3.12.87,6.23,1.31,9.34.16,1.13.16,1.15,1.26,1L48,45.24c1-.15,1.08-.06,1.1.93A11.08,11.08,0,0,1,39.35,57.6,11,11,0,0,1,27.53,46.43"/><path class="cls-4" d="M72.48,67.71q0,4.88,0,9.76c0,1.35-.62,2.11-1.9,2.19a25,25,0,0,1-3,0c-1.28-.08-1.91-.83-1.91-2.19q0-9.76,0-19.51c0-1.38.44-2,1.76-2.15a10.89,10.89,0,0,1,3.5,0,1.7,1.7,0,0,1,1.54,2q0,5,0,9.91"/><path class="cls-3" d="M49.54,24.18H30.63a4.32,4.32,0,0,1-2.39-.58,1.22,1.22,0,0,1,0-2.2,4,4,0,0,1,2.31-.62H68.69a3.79,3.79,0,0,1,2.36.7,1.18,1.18,0,0,1,0,2,4,4,0,0,1-2.51.67h-19"/><path class="cls-4" d="M57.59,70q0-3.73,0-7.47c0-1.37.6-2.09,1.91-2.17a24,24,0,0,1,3,0,1.88,1.88,0,0,1,1.9,2.12q0,7.55,0,15.09a1.88,1.88,0,0,1-1.89,2.13,24.57,24.57,0,0,1-3,0c-1.34-.08-1.91-.77-1.91-2.16q0-3.77,0-7.55"/><path class="cls-4" d="M56.34,71.95q0,2.78,0,5.56a1.87,1.87,0,0,1-1.86,2.15,23.42,23.42,0,0,1-3.07,0,1.87,1.87,0,0,1-1.87-2.13q0-5.6,0-11.19c0-1.35.5-1.94,1.79-2.11a12.16,12.16,0,0,1,3.21,0,1.79,1.79,0,0,1,1.81,2.09q0,2.82,0,5.63"/><path class="cls-4" d="M39.49,34.47a10.9,10.9,0,0,1,10,8.47c.21.89.19,1-.66,1.09-3,.46-5.94.89-8.91,1.37-.63.1-.82-.14-.9-.72q-.63-4.6-1.3-9.19c-.09-.63,0-1,.74-1a5.41,5.41,0,0,1,1.06,0"/><path class="cls-3" d="M38.3,27.32h9c1.15,0,1.79.57,1.82,1.61a1.65,1.65,0,0,1-1.78,1.77q-9,0-18,0a1.7,1.7,0,0,1-1.71-2.34,1.43,1.43,0,0,1,1.53-1.05H38.3"/><path class="cls-3" d="M36.73,76.29h7.4a1.71,1.71,0,1,1,0,3.39H29.33a1.61,1.61,0,0,1-1.57-.77,1.68,1.68,0,0,1,1.43-2.62c2.52,0,5,0,7.55,0"/><path class="cls-3" d="M62.42,30.89H55c-1.18,0-1.87-.61-1.89-1.63A1.65,1.65,0,0,1,55,27.5h14.8c1.13,0,1.75.55,1.81,1.54A1.54,1.54,0,0,1,70,30.88c-2.51,0-5,0-7.55,0"/><path class="cls-3" d="M63.23,43.25H55.76a1.69,1.69,0,1,1,0-3.38c5,0,10,0,14.94,0a1.71,1.71,0,0,1,1.23.4,1.76,1.76,0,0,1,.47,1.94,1.4,1.4,0,0,1-1.46,1H63.23"/><path class="cls-3" d="M63.28,49H55.66a1.53,1.53,0,0,1-1.49-.91,1.71,1.71,0,0,1,.08-1.74,1.47,1.47,0,0,1,1.35-.75c5.08,0,10.16,0,15.24,0a1.69,1.69,0,0,1,0,3.38c-2.51,0-5,0-7.55,0"/><path class="cls-3" d="M36.8,67.8c-2.52,0-5,0-7.55,0a1.6,1.6,0,0,1-1.73-1.92,1.55,1.55,0,0,1,1.74-1.46H44.36a1.49,1.49,0,0,1,1.44.86,1.78,1.78,0,0,1-.08,1.81,1.57,1.57,0,0,1-1.51.73H36.8"/><path class="cls-3" d="M36.72,70.18h7.47a1.7,1.7,0,1,1,0,3.39q-7.43,0-14.86,0a1.64,1.64,0,0,1-1.76-1.18,1.62,1.62,0,0,1,1.59-2.2c2.51,0,5,0,7.54,0"/></g></svg>