<svg id="Layer_1" data-name="Layer 1" xmlns="http://www.w3.org/2000/svg" xmlns:xlink="http://www.w3.org/1999/xlink" viewBox="0 0 200 200"><defs><style>.cls-1{fill:none;}.cls-2{clip-path:url(#clip-path);}.cls-3{fill:#192b47;}.cls-4{fill:#21ba49;}</style><clipPath id="clip-path"><rect class="cls-1" x="0.5" y="0.5" width="199" height="199"/></clipPath></defs><title>grammer</title><g class="cls-2"><path class="cls-3" d="M133.66,76.88l-20.38-20.3c0,6.15-.09,12.16.12,18.16,0,.74,1.63,2,2.53,2,5.77.19,11.55.1,17.74.1M63.14,38.93h79.59c6.12,0,8.33,2.26,8.31,8.45,0,.45,0,.89,0,1.34q0,48,0,96c0,.6.08,1.21.13,1.78,5.79.82,6.31.4,6.31-5q0-52.32,0-104.63c0-4.07-.38-4.46-4.41-4.46H68.83c-1,0-2,0-3,0a2.58,2.58,0,0,0-2.72,2.7c-.06,1.14,0,2.28,0,3.76M52.71,49H56c17.71,0,35.42,0,53.13,0A6.32,6.32,0,0,1,114,51c8.35,8.47,16.83,16.82,25.15,25.32a6.22,6.22,0,0,1,1.66,3.92c.09,19.94,0,39.87,0,59.81,0,5.7,0,11.4,0,17,5.32.83,6,.27,6-4.65,0-18.32.12-36.65.12-55,0-16.72-.08-33.45-.12-50.17,0-3.93-.29-4.22-4.33-4.22H56.69c-.54,0-1.23-.21-1.58.05a6.9,6.9,0,0,0-2.31,2.36c-.39.89-.08,2.09-.08,3.51m56.41,4.2H46.62c-3.84,0-4,.22-4,4.19q0,51.63,0,103.25c0,6.72-.69,6.92,6.86,6.91q41.59-.08,83.19,0c3.75,0,4.32-.6,4.32-4.37q0-13.82,0-27.64,0-19.29.06-38.58c0-5.25,0-10.49,0-16h-3c-5.72,0-11.45,0-17.17,0-5.37,0-7.66-2.37-7.67-7.7,0-6.52,0-13,0-20M48.25,49c.55-7.24.07-9.65,10.89-10.39,0-1,0-2.07,0-3.12.07-4.68,2.41-7,7.18-7,6.44,0,12.88,0,19.32,0h67.63c6.3,0,8.42,2.23,8.41,8.61q-.08,31.94-.1,63.87c0,13.68.06,27.36.08,41,0,6.91-2,8.92-8.9,9h-1.71c.78,7.31-1.84,11.66-10.18,10.45,0,1.68.07,2.92,0,4.14a6.09,6.09,0,0,1-5.82,5.89c-1.16.08-2.32,0-3.49.05H47c-6.67,0-8.66-2.12-8.65-8.9,0-17.62-.06-35.24-.07-52.85q0-26.68.07-53.36c0-4.74,2.6-7.31,7.27-7.39.88,0,1.75,0,2.59,0"/><path class="cls-4" d="M121.43,136.12a50.74,50.74,0,0,0-5.39-1.06c-4.28-.38-8.59-.66-12.57,1.5a7.09,7.09,0,0,0-4,6.73c0,3,1.82,4.75,4.24,6,5.3,2.74,13.11,1,16.75-3.75a4.67,4.67,0,0,0,1-2.38c.13-2.22,0-4.46,0-7M77.19,97.73l-.76,0L65.49,128.87H88.13L77.19,97.73m44.66,52.46c-7.13,5.13-12.74,5.83-20.44,2.7-1.09.68-2.21,1.88-2.85,1.67A4.49,4.49,0,0,1,96.31,152c-2.29-6.18-4.43-12.42-6.68-18.8-8.12,0-16.16,0-24.2.08a3.07,3.07,0,0,0-2.06,1.81c-2.13,5.68-4.12,11.4-6.11,17.13-.5,1.44-1,3-2.88,2.37-2-.63-1.53-2.26-1-3.78Q61,129.39,68.57,108c1.28-3.61,2.6-7.21,3.76-10.86.7-2.21,2.1-3.72,4.31-3.83s3.74,1.23,4.52,3.47c4.46,12.79,9,25.55,13.52,38.32.39,1.09.8,2.17,1.32,3.6a13.46,13.46,0,0,1,11.22-7.49c4.58-.35,9.21-.08,14-.08,2.05-7.48-3.59-13-12.08-11-2.83.68-5.46,2.17-8.27,3-.83.25-1.94-.46-2.92-.72.32-.91.37-2.3,1-2.66,4.79-2.74,9.91-4.64,15.55-4.08,6.46.65,10.45,4.88,10.79,11.59.3,6,.2,12,.31,18,0,1.79.13,3.52,2,4.69a2.52,2.52,0,0,1,.26,2.47,2.67,2.67,0,0,1-2.51.62,19.08,19.08,0,0,1-3.44-2.81"/></g></svg>