<svg id="Layer_1" data-name="Layer 1" xmlns="http://www.w3.org/2000/svg" xmlns:xlink="http://www.w3.org/1999/xlink" viewBox="0 0 200 200"><defs><style>.cls-1,.cls-4,.cls-5{fill:none;}.cls-2{clip-path:url(#clip-path);}.cls-3{fill:#21ba49;}.cls-4,.cls-5{stroke:#192b47;stroke-linecap:round;stroke-linejoin:round;stroke-width:6.05px;}.cls-4{stroke-dasharray:0 12.56;}.cls-6{fill:#192b47;}</style><clipPath id="clip-path"><rect class="cls-1" x="0.5" y="0.5" width="199" height="199"/></clipPath></defs><title>percentage_conversion</title><g class="cls-2"><path class="cls-3" d="M100,149.37A49.37,49.37,0,1,0,50.63,100,49.37,49.37,0,0,0,100,149.37"/><path class="cls-4" d="M112.5,170.89a72,72,0,0,0,59.2-64.62"/><path class="cls-4" d="M170.89,87.5a72,72,0,0,0-64.62-59.2"/><path class="cls-4" d="M87.5,29.11a72,72,0,0,0-59.2,64.62"/><path class="cls-4" d="M29.11,112.5a72,72,0,0,0,64.62,59.2"/><path class="cls-5" d="M100,172h0M28,100h0m72-72h0m72,72h0"/><path class="cls-6" d="M117.33,79.29,110.75,76,81,123.65,87.54,127Zm-8.08,37.08a5.06,5.06,0,0,1,1.3-3.43,4.73,4.73,0,0,1,6.53.08,5.13,5.13,0,0,1,1.21,3.56l0,4.29q-.33,3.83-4.4,3.83a4.25,4.25,0,0,1-3.27-1.48,5,5,0,0,1-1.34-3.43Zm-9,3.21q0,5.95,3.75,9.36t9.91,3.41q6.24,0,9.88-3.43a12,12,0,0,0,3.64-9.13v-2.93q0-6.07-3.69-9.47T113.77,104q-6.16,0-9.86,3.43a11.85,11.85,0,0,0-3.71,9.13ZM80.3,82.36a5.31,5.31,0,0,1,1.21-3.68,4.17,4.17,0,0,1,3.27-1.35,4.09,4.09,0,0,1,3.31,1.39,5.34,5.34,0,0,1,1.17,3.56v2.5q0,5.58-4.4,5.58A4.27,4.27,0,0,1,81.51,89a5.06,5.06,0,0,1-1.21-3.52Zm-9.09,2.88q0,5.95,3.75,9.36T84.86,98q6.2,0,9.84-3.43a11.9,11.9,0,0,0,3.64-9.09v-3a12.29,12.29,0,0,0-3.64-9.36q-3.64-3.46-9.93-3.45T74.9,73.14a12,12,0,0,0-3.69,9.13Z"/></g></svg>