<svg id="Layer_1" data-name="Layer 1" xmlns="http://www.w3.org/2000/svg" xmlns:xlink="http://www.w3.org/1999/xlink" viewBox="0 0 200 200"><defs><style>.cls-1,.cls-3,.cls-4{fill:none;}.cls-2{clip-path:url(#clip-path);}.cls-3{stroke:#192b47;}.cls-3,.cls-4{stroke-width:5px;}.cls-4{stroke:#21ba49;}</style><clipPath id="clip-path"><rect class="cls-1" x="1" width="199" height="199"/></clipPath></defs><title>process_flow</title><g class="cls-2"><path class="cls-3" d="M73.25,42.31s-6,0-6,6V72.22s0,6,6,6h54.5s6,0,6-6V48.31s0-6-6-6Z"/><path class="cls-4" d="M25.57,120.78s-6,0-6,6v23.91s0,6,6,6H56.25s6,0,6-6V126.78s0-6-6-6Z"/><path class="cls-3" d="M85.16,120.78s-6,0-6,6v23.91s0,6,6,6h30.68s6,0,6-6V126.78s0-6-6-6Z"/><path class="cls-4" d="M144.75,120.78s-6,0-6,6v23.91s0,6,6,6h30.68s6,0,6-6V126.78s0-6-6-6Z"/></g><line class="cls-3" x1="100.5" y1="80.35" x2="100.5" y2="118.48"/><line class="cls-3" x1="160.09" y1="99.41" x2="160.09" y2="118.48"/><line class="cls-3" x1="40.91" y1="99.41" x2="40.91" y2="118.48"/><line class="cls-3" x1="38.41" y1="97.62" x2="162.59" y2="97.62"/></svg>