<svg id="Layer_1" data-name="Layer 1" xmlns="http://www.w3.org/2000/svg" xmlns:xlink="http://www.w3.org/1999/xlink" viewBox="0 0 200 200"><defs><style>.cls-1,.cls-5{fill:none;}.cls-2{clip-path:url(#clip-path);}.cls-3{fill:#192b47;}.cls-4{fill:#21b547;}.cls-5{stroke:#192b47;stroke-miterlimit:10;stroke-width:5px;}</style><clipPath id="clip-path"><rect class="cls-1" x="0.5" y="0.5" width="199" height="199"/></clipPath></defs><title>Untitled-1</title><g class="cls-2"><path class="cls-3" d="M130.81,83.37c1.08-4.6,3.21-8.14,5-11.83a29.35,29.35,0,0,0,1.29-23.73c-2-5.55-7.76-8.77-14.57-8.25-5.42.41-5.81,5.24-7.18,9-.79,2.16-.92,4.56-1.43,6.83-.94,4.24-2.13,8.4-5,11.85-5,6-9.79,12.22-15.05,18C90.4,89,87.62,94,81.58,94.74c-1.92.24-1.65,2.28-1.66,3.72,0,17.66,0,35.31,0,53,0,2.71,1,4.39,3.87,4.81C89,157,94,158.83,99,160.67a104.62,104.62,0,0,0,45.1,6.37c9.18-.73,15-7.26,16.17-16,1.14-8.57,5.34-16.49,6.31-25.33.42-3.8,2.5-7.52,1.35-11.55-.75-2.62-.16-4.73,1.18-7.06,6.9-12,.07-23.71-13.72-23.74-8.1,0-16.21,0-24.61,0M75.73,96a5,5,0,0,1,3.35-4.49c7-2,10.18-8.15,14.71-12.78,2.89-3,5.14-6.55,8-9.57A30.65,30.65,0,0,0,110.35,51a22.79,22.79,0,0,1,.54-2.43c1.93-8.7,5.8-13.37,11.15-13.45,10.35-.16,17.64,4.57,19.84,13.26,2.09,8.27,1.91,16.47-1.94,24.33-.94,1.91-1.76,3.88-2.91,6.44h19.14c15.75,0,24.85,15,17.43,29-1.27,2.39-1.94,4.47-1.09,7a2,2,0,0,1,.21,1c-2.46,9.94-1.77,20.62-6.92,29.9a10.43,10.43,0,0,0-1.46,5c-.48,11.94-8.4,19.32-20.39,20.2a108.76,108.76,0,0,1-46.53-6.61c-5-1.85-10-3.66-15.33-4.32-3.2-.4-4.83-2.62-6.24-5.15L75.73,96"/><path class="cls-3" d="M47.31,169.17a68.69,68.69,0,0,1-14-2c-6.12-1.39-9.29-5.36-9.46-11.65-.09-3.48-.23-7,1-10.34.56-1.49,0-4.37,2.63-3.7s.61,2.88.24,4.19a30.39,30.39,0,0,0-1,8.87c.12,5.82,2.21,8.49,7.85,9.86a85.61,85.61,0,0,0,16.75,2c1.25.05,2.91-.81,3.08,1.25s-1.8,1.42-2.88,1.61a22.85,22.85,0,0,1-4.22-.15"/><path class="cls-3" d="M151.14,58c0-15.69-4.27-21.36-18.63-25.89-1.28-.41-3.58-.17-3-2.35s2.63-.84,3.8-.5c17.86,5.16,21.41,14,20.68,31.79,0,1.1-.14,2.54-1.86,2.26-1.26-.21-1.29-1.26-1.19-2.33.13-1.32.18-2.65.2-3"/><path class="cls-4" d="M52.91,149.21a7.48,7.48,0,0,0,7.78-7.3c.1-3.8-3.68-7.67-7.58-7.75a7.78,7.78,0,0,0-8,7.74,7.59,7.59,0,0,0,7.79,7.31M39.14,95.32s0-.17.29-.51.3-.34.47-.51c0,0,.17-.17,1.82-.16s1.65,0,3.32,0c6.31,0,12.63.14,18.94.1,4.35,0,6.2,1.74,6.15,6.32q-.28,24.93,0,49.86c0,4.32-1.46,6-5.8,5.82-6.64-.24-13.3,0-19.94-.09-2.19,0-4.67.34-5.36-.91a11.54,11.54,0,0,1-.74-1.57L38,152.07c.07-18.3,1.15-56.58,1.13-56.75"/><path class="cls-5" d="M52.91,149.21a7.48,7.48,0,0,0,7.78-7.3c.1-3.8-3.68-7.67-7.58-7.75a7.78,7.78,0,0,0-8,7.74A7.59,7.59,0,0,0,52.91,149.21ZM39.14,95.32s0-.17.29-.51.3-.34.47-.51c0,0,.17-.17,1.82-.16s1.65,0,3.32,0c6.31,0,12.63.14,18.94.1,4.35,0,6.2,1.74,6.15,6.32q-.28,24.93,0,49.86c0,4.32-1.46,6-5.8,5.82-6.64-.24-13.3,0-19.94-.09-2.19,0-4.67.34-5.36-.91a11.54,11.54,0,0,1-.74-1.57L38,152.07C38.08,133.77,39.15,95.49,39.14,95.32Z"/><path class="cls-3" d="M52.27,138.18c-2,.29-2.63,2.09-2.71,3.53a3.14,3.14,0,0,0,3.4,3.45,3,3,0,0,0,3.21-3.08c0-2.4-1.75-3.32-3.89-3.9m.65,11a7.59,7.59,0,0,1-7.79-7.32,7.78,7.78,0,0,1,8-7.74c3.89.08,7.68,4,7.58,7.75a7.48,7.48,0,0,1-7.78,7.3"/></g></svg>